<?xml version="1.0" encoding="UTF-8"?><svg id="a" xmlns="http://www.w3.org/2000/svg" viewBox="0 0 316.65 397.23"><path d="M125.75,123.31l-11.54,10.95h35.4l11.54-10.95h-35.4Zm189.85,2.25c-1.03-1.41-2.67-2.25-4.43-2.25H5.48c-1.75,0-3.39,.84-4.43,2.25-1.03,1.41-1.33,3.23-.78,4.89L84.58,393.42c.73,2.27,2.83,3.81,5.21,3.81H226.86c2.38,0,4.49-1.54,5.21-3.81l84.32-262.96c.53-1.66,.24-3.48-.79-4.89Zm-92.74,260.7H93.79L12.98,134.26H303.66l-80.8,252ZM125.75,123.31l-11.54,10.95h35.4l11.54-10.95h-35.4Z"/><path d="M83.89,261.47c-14.21,0-24.84-7.15-27.73-18.67-2.33-8.35-.37-17.6,5.43-25.24,7.72-10.18,20.6-14.52,31.36-10.34,.52-.93,1.15-1.82,1.89-2.64,3.54-3.98,9.21-6.36,15.16-6.36s10.9,2.29,14.07,6.28c1.76,2.22,3.55,5.75,3.54,10.92,5.63,1.56,10.78,5.36,13.98,10.54,4.19,6.8,4.43,15.01,.65,22.52-2.42,4.67-7.47,10.17-17.98,10.17-6.25,0-12.95-2-18.2-3.94-5.83,4.26-13.85,6.74-22.17,6.74Zm.3-44.95c-5.04,0-10.23,2.87-13.88,7.67-3.71,4.88-5.01,10.65-3.57,15.81,2.46,9.77,13.74,10.52,17.14,10.52,6.76,0,13.56-2.35,17.34-5.99,1.55-1.5,3.83-1.95,5.83-1.15,4.68,1.86,11.55,4.34,17.2,4.34,5.36,0,7.21-2.24,8.22-4.19,2.61-5.2,1.33-9.29-.22-11.8-2.26-3.66-6.39-6.12-10.28-6.12-1.67,0-3.47-.76-4.51-2.07-1.04-1.31-1.65-3.01-1.27-4.64,.55-2.36,.87-5.58-.72-7.58-2.33-2.94-9.76-2.49-12.47,.54-.81,.91-1.12,1.89-.98,3.1,.26,2.2-.84,4.35-2.78,5.42-1.94,1.08-4.34,.88-6.07-.5-2.8-2.23-5.83-3.36-9-3.36Z"/><path d="M153.61,372.98c-13.82,0-24.15-6.96-26.97-18.15-2.27-8.12-.36-17.12,5.28-24.55,7.51-9.9,20.03-14.12,30.49-10.06,.51-.91,1.12-1.77,1.84-2.57,3.44-3.87,8.96-6.18,14.74-6.18s10.6,2.23,13.68,6.11c1.72,2.16,3.46,5.59,3.44,10.62,5.47,1.52,10.49,5.21,13.59,10.25,4.08,6.61,4.31,14.59,.64,21.9-2.35,4.54-7.26,9.89-17.48,9.89-6.07,0-12.59-1.95-17.7-3.83-5.67,4.14-13.47,6.55-21.56,6.55Zm.29-43.71c-4.9,0-9.95,2.79-13.49,7.46-3.6,4.75-4.87,10.35-3.47,15.37,2.39,9.5,13.36,10.23,16.67,10.23,6.57,0,13.19-2.29,16.86-5.83,1.5-1.46,3.72-1.89,5.67-1.12,4.55,1.81,11.23,4.22,16.73,4.22,5.22,0,7.01-2.18,7.99-4.08,2.54-5.06,1.29-9.03-.21-11.47-2.2-3.56-6.21-5.95-9.99-5.95-1.62,0-3.38-.74-4.39-2.01-1.01-1.27-1.6-2.93-1.24-4.51,.53-2.29,.84-5.43-.7-7.37-2.27-2.86-9.49-2.43-12.13,.53-.78,.88-1.09,1.84-.95,3.01,.25,2.14-.82,4.23-2.7,5.27-1.89,1.05-4.22,.85-5.91-.49-2.73-2.17-5.67-3.27-8.75-3.27Z"/><path d="M217.36,306.06c-12.81,0-28.01-8.25-32.87-19.76-2.85,.57-6.39,1.06-10.08,1.06h0c-12.01,0-19.76-5.42-21.26-14.87-.87-5.2,.78-10.87,4.54-15.49,2.32-2.86,5.26-5.11,8.45-6.54-1.28-4.42-1.68-9.66-.34-14.61,1.41-5.21,4.52-9.19,9.01-11.52,10.39-5.37,19.37-2.87,25.19,6.73,3.8-1.44,8.16-2.22,12.58-2.22,9.73,0,17.83,3.84,21.66,10.28,3.46,5.55,2.83,10.41,1.67,13.49-1.69,4.5-5.35,7.77-9.02,10.04,4.49,4.45,8.25,10.28,10.05,16,2.05,6.52,1.62,12.65-1.24,17.71-3.42,6.23-9.94,9.7-18.34,9.7Zm-28.94-31.86c1.09,0,2.17,.33,3.09,.96,1.37,.94,2.24,2.46,2.37,4.11,.56,7.55,12.84,15.83,23.48,15.83,4.34,0,7.28-1.37,8.77-4.07,1.39-2.45,1.49-5.49,.36-9.1-2.18-6.94-8.16-13.34-12.68-15.5-2.04-.98-3.27-3.11-3.09-5.36,.17-2.26,1.71-4.17,3.87-4.83,5.39-1.63,10.05-4.79,11.07-7.5,.3-.79,.47-1.94-.77-3.94-1.87-3.13-6.56-5.02-12.31-5.02-4.5,0-9.08,1.21-11.95,3.16-1.36,.93-3.06,1.19-4.65,.71-1.58-.48-2.86-1.64-3.49-3.16-3.28-7.98-6.35-7.98-7.5-7.98-1.44,0-3.17,.52-5.15,1.55-1.73,.9-2.87,2.41-3.47,4.64-1.17,4.32,.12,9.68,1.93,12.52,1.05,1.65,1.14,3.74,.23,5.48-.91,1.74-2.67,2.85-4.63,2.93-2.7,.11-5.65,1.75-7.7,4.28-1.77,2.19-2.59,4.68-2.22,6.82,.25,1.59,.9,5.68,10.45,5.68,3.75,0,8.39-.74,12.41-1.96,.53-.16,1.07-.24,1.6-.24Z"/><path d="M59.44,145.44c7.29,0,15.94,4.7,18.71,11.25,1.62-.32,3.63-.6,5.73-.6h0c6.84,0,11.25,3.08,12.1,8.46,.5,2.96-.44,6.18-2.58,8.82-1.32,1.63-2.99,2.91-4.81,3.72,.73,2.52,.96,5.5,.2,8.32-.8,2.97-2.57,5.23-5.13,6.55-5.91,3.06-11.02,1.63-14.34-3.83-2.17,.82-4.64,1.27-7.16,1.27-5.54,0-10.15-2.19-12.33-5.85-1.97-3.16-1.61-5.92-.95-7.68,.96-2.56,3.05-4.42,5.13-5.71-2.56-2.53-4.7-5.85-5.72-9.11-1.17-3.71-.92-7.2,.7-10.08,1.94-3.55,5.66-5.52,10.44-5.52Zm16.47,18.13c-.62,0-1.24-.19-1.76-.55-.78-.53-1.28-1.4-1.35-2.34-.32-4.3-7.31-9.01-13.36-9.01-2.47,0-4.14,.78-4.99,2.32-.79,1.4-.85,3.13-.21,5.18,1.24,3.95,4.65,7.59,7.22,8.82,1.16,.56,1.86,1.77,1.76,3.05-.1,1.28-.97,2.37-2.2,2.75-3.07,.93-5.72,2.72-6.3,4.27-.17,.45-.27,1.11,.44,2.24,1.06,1.78,3.73,2.86,7,2.86,2.56,0,5.17-.69,6.8-1.8,.77-.53,1.74-.68,2.65-.4,.9,.27,1.63,.93,1.98,1.8,1.87,4.54,3.61,4.54,4.27,4.54,.82,0,1.8-.3,2.93-.88,.99-.51,1.63-1.37,1.98-2.64,.66-2.46-.07-5.51-1.1-7.13-.6-.94-.65-2.13-.13-3.12,.52-.99,1.52-1.62,2.63-1.67,1.53-.06,3.21-1,4.38-2.44,1.01-1.25,1.47-2.66,1.27-3.88-.14-.9-.51-3.23-5.95-3.23-2.13,0-4.77,.42-7.06,1.12-.3,.09-.61,.14-.91,.14Z"/><path d="M230.65,214.92h0c-1.41,0-2.82-.16-4.2-.47-8.71-2.16-17.12-11.57-18.48-20.58-.41-2.7-.19-5.26,.6-7.57-4.77-2.23-8.42-6.13-10.1-11.15-2.58-7.69,.2-15.78,7.26-21.11,3.47-2.65,7.41-4.07,11.36-4.07,6.17,0,11.66,3.42,14.88,8.7,5.23-3.14,11.72-5,18.18-5,11.54,0,20.19,5.75,23.13,15.37,2.65,7.92,.45,13.46-1.87,16.68-3.67,5.1-10.56,8.35-18.75,8.96-.47,4.07-2.15,8.07-4.93,11.56-4.33,5.43-10.72,8.67-17.09,8.67Zm-13.56-53.99c-1.55,0-3.15,.61-4.74,1.83-3.3,2.49-4.56,5.73-3.5,8.91,.89,2.65,3.86,5.74,9.31,5.74,2.46,0,4.62,1.64,5.28,4.01,.66,2.37-.34,4.89-2.45,6.16-1.89,1.14-2.53,2.49-2.2,4.67,.76,5.05,6.23,10.58,10.17,11.55,.47,.1,1.07,.17,1.68,.17,3.06,0,6.26-1.7,8.53-4.55,2.23-2.79,3.12-6.08,2.45-9.02-.39-1.71,.07-3.51,1.23-4.83,1.16-1.32,2.91-2,4.64-1.84,6.13,.6,12.82-1.31,15.03-4.4,.45-.62,1.81-2.51,.33-6.94-2.07-6.77-8.84-7.76-12.7-7.76-6.4,0-13.21,2.78-16.56,6.75-1.41,1.68-3.69,2.36-5.8,1.71-2.1-.65-3.61-2.48-3.84-4.67-.45-4.28-3.4-7.49-6.87-7.49Z"/><path d="M112.59,326.22h0c-1.18,0-2.36-.13-3.51-.39-7.29-1.81-14.32-9.68-15.46-17.21-.34-2.26-.16-4.4,.51-6.34-3.99-1.86-7.05-5.13-8.45-9.33-2.16-6.44,.17-13.2,6.07-17.66,2.9-2.22,6.2-3.4,9.51-3.4,5.16,0,9.76,2.86,12.45,7.28,4.37-2.63,9.81-4.18,15.21-4.18,9.65,0,16.89,4.81,19.35,12.86,2.22,6.63,.38,11.26-1.56,13.95-3.07,4.27-8.83,6.99-15.69,7.5-.39,3.4-1.8,6.75-4.13,9.67-3.63,4.54-8.97,7.25-14.3,7.25Zm-11.34-45.16c-1.3,0-2.63,.51-3.96,1.53-2.76,2.08-3.82,4.79-2.93,7.45,.74,2.21,3.23,4.8,7.79,4.8,2.06,0,3.86,1.37,4.42,3.35,.55,1.98-.29,4.09-2.05,5.15-1.58,.96-2.11,2.08-1.84,3.9,.64,4.23,5.21,8.85,8.51,9.66,.4,.09,.9,.14,1.41,.14,2.56,0,5.23-1.42,7.13-3.81,1.86-2.33,2.61-5.08,2.05-7.55-.33-1.43,.05-2.94,1.03-4.04,.97-1.1,2.44-1.67,3.88-1.54,5.13,.5,10.72-1.1,12.57-3.68,.38-.52,1.51-2.1,.27-5.8-1.73-5.66-7.4-6.49-10.62-6.49-5.36,0-11.05,2.32-13.86,5.65-1.18,1.41-3.08,1.98-4.85,1.43-1.76-.54-3.02-2.08-3.21-3.91-.37-3.58-2.84-6.27-5.74-6.27Z"/><path d="M176.28,163.21h0c.78,.78,1.48,1.66,2.08,2.59,3.65,6.05,3.09,15.96-1.16,21.73-1.27,1.73-2.82,3.03-4.55,3.88,1.41,3.89,1.27,8.1-.58,11.83-2.85,5.71-8.89,8.67-15.78,7.7-3.41-.45-6.38-1.86-8.58-4.06-3.43-3.43-4.59-8.39-3.44-13.12-4.66-1.16-9.3-3.74-12.89-7.33-6.42-6.42-8.03-14.43-4.32-21.42,2.93-5.88,7.23-7.74,10.32-8.24,4.88-.79,10.52,1.23,15.42,5.45,2.52-2,5.69-3.29,9.17-3.69,5.43-.61,10.79,1.14,14.33,4.68Zm-22.5,37.58c.86,.86,2.09,1.41,3.65,1.62,3.22,.45,5.73-.65,6.91-3.01,.98-1.97,1.05-5.34-1.99-8.37-1.37-1.37-1.66-3.48-.71-5.17,.95-1.69,2.91-2.53,4.79-2.06,1.69,.41,2.79,.02,3.82-1.37,2.39-3.24,2.42-9.35,.77-12.08-.21-.32-.5-.69-.84-1.03-1.7-1.7-4.43-2.53-7.28-2.21-2.79,.31-5.12,1.64-6.38,3.65-.74,1.17-1.99,1.92-3.37,2-1.38,.09-2.73-.51-3.6-1.56-3.08-3.74-7.86-6.4-10.81-5.92-.6,.1-2.4,.39-4.04,3.68-2.61,4.92,.6,9.24,2.75,11.38,3.56,3.56,8.9,5.8,12.97,5.46,1.72-.15,3.36,.74,4.18,2.28,.81,1.53,.63,3.39-.46,4.73-2.13,2.63-2.28,6.06-.35,7.99Z"/><g><path d="M153.7,31.19c1.24,1.31,3.33,1.36,4.63,.12h0c1.31-1.24,1.36-3.33,.12-4.63l-.65-.69c-1.24-1.31-3.33-1.36-4.63-.12-1.31,1.24-1.36,3.33-.12,4.63l.65,.69Z"/><path d="M160.74,38.61l.65,.69c1.24,1.31,3.33,1.36,4.63,.12,1.31-1.24,1.36-3.33,.12-4.63l-.65-.69c-1.24-1.31-3.33-1.36-4.63-.12-1.31,1.24-1.36,3.33-.12,4.63Z"/><path d="M173.84,42.9l-.65-.69c-1.24-1.31-3.33-1.36-4.63-.12-1.31,1.24-1.36,3.33-.12,4.63l.65,.69c1.24,1.31,3.33,1.36,4.63,.12,1.31-1.24,1.36-3.33,.12-4.63Z"/><path d="M181.54,51l-.65-.69c-1.24-1.31-3.33-1.36-4.63-.12-1.31,1.24-1.36,3.33-.12,4.63l.65,.69c1.24,1.31,3.33,1.36,4.63,.12,1.31-1.24,1.36-3.33,.12-4.63Z"/><path d="M189.23,59.11l-.65-.69c-1.24-1.31-3.33-1.36-4.63-.12-1.31,1.24-1.36,3.33-.12,4.63l.65,.69c1.24,1.31,3.33,1.36,4.63,.12,1.31-1.24,1.36-3.33,.12-4.63Z"/><path d="M196.93,67.22l-.65-.69c-1.24-1.31-3.33-1.36-4.63-.12-1.31,1.24-1.36,3.33-.12,4.63l.65,.69c1.24,1.31,3.33,1.36,4.63,.12,1.31-1.24,1.36-3.33,.12-4.63Z"/><path d="M203.96,74.64c-1.24-1.31-3.33-1.36-4.63-.12h0c-1.31,1.24-1.36,3.33-.12,4.63l.65,.69c1.24,1.31,3.33,1.36,4.63,.12s1.36-3.33,.12-4.63l-.65-.69Z"/><polygon points="103.07 115.53 101.02 113.36 91.64 122.26 93.69 124.43 96.97 121.32 105.73 130.55 108.51 127.92 99.74 118.69 103.07 115.53"/><rect x="108.71" y="107.23" width="3.82" height="15.71" transform="translate(-48.84 107.75) rotate(-43.5)"/><path d="M127.14,110.57c1.48-1.41,2.39-2.75,2.67-3.46l-2.33-1.62c-.35,.72-1.11,1.76-1.95,2.55-2.46,2.34-5.28,2.27-7.44,0-2.41-2.54-1.88-5.39,.31-7.47,.98-.93,1.95-1.46,2.72-1.78l-1.38-2.58c-.71,.23-2.06,.99-3.49,2.35-3.69,3.51-4.61,8.49-.92,12.38,3.08,3.25,7.58,3.64,11.8-.37Z"/><path d="M135.99,101.84l-3.53-3.72-.09-2.2,7.66,2.09,3.22-3.06-10.47-2.51-.57-8.69-3.39,3.21,.82,6.42c.11,.66,.21,1.34,.35,2.04l-.05,.05-4.78-5.04-2.73,2.59,10.82,11.4,2.73-2.59Z"/><polygon points="145.72 92.61 153.5 85.22 151.5 83.11 146.48 87.87 143.91 85.16 148.4 80.9 146.41 78.8 141.92 83.07 139.68 80.7 144.44 76.18 142.43 74.06 134.9 81.21 145.72 92.61"/><polygon points="150.41 70.61 159.17 79.85 161.94 77.22 153.18 67.98 156.51 64.82 154.46 62.65 145.08 71.56 147.13 73.72 150.41 70.61"/><polygon points="112.61 86.65 115.27 90.19 116.97 86.05 121.19 84.58 117.79 81.73 117.73 77.28 113.94 79.66 109.69 78.38 110.74 82.7 108.17 86.36 112.61 86.65"/><polygon points="127.19 72.81 129.85 76.35 131.55 72.21 135.77 70.74 132.37 67.89 132.32 63.44 128.52 65.82 124.27 64.54 125.32 68.86 122.75 72.52 127.19 72.81"/><polygon points="98.03 100.48 100.69 104.02 102.38 99.89 106.6 98.41 103.21 95.57 103.15 91.12 99.36 93.49 95.11 92.22 96.16 96.53 93.59 100.19 98.03 100.48"/><path d="M171.94,84.93l-41.98,39.84-10,9.49h-7.27l10-9.49,45.81-43.47c1-.95,2.59-.91,3.54,.1,.95,1,.91,2.59-.09,3.54Z"/><path d="M168,103.47l-22.45,21.3-10,9.49h-6.7c.11-.45,.35-.87,.7-1.21l8.73-8.28,26.27-24.93c1-.95,2.59-.91,3.54,.09,.95,1,.91,2.59-.09,3.54Z"/><path d="M230.86,62.36c-.09-.15-.19-.28-.32-.41l-6.73-7.1c-.47-.49-1.11-.77-1.79-.8-.68-.01-1.34,.24-1.83,.71-2.69,2.55-6.52,3.08-8.36,1.14-1.84-1.94-1.11-5.73,1.58-8.29,.49-.46,.77-1.11,.8-1.78,.01-.68-.24-1.34-.71-1.83l-6.83-7.2c-.46-.49-1.11-.78-1.78-.8-.68-.02-1.34,.24-1.83,.7-2.69,2.56-6.52,3.08-8.36,1.15-.83-.88-1.17-2.16-.97-3.62,.24-1.66,1.16-3.36,2.55-4.68,.49-.46,.78-1.11,.8-1.78,.02-.68-.24-1.34-.7-1.83l-6.83-7.2c-.97-1.02-2.59-1.07-3.61-.09-1.38,1.3-3.11,2.14-4.77,2.29,0,0-.01,0-.03,0-1.47,.12-2.73-.28-3.56-1.16-1.84-1.94-1.11-5.73,1.58-8.29,1.02-.98,1.07-2.59,.1-3.61l-6.74-7.1c-.5-.53-1.18-.8-1.85-.8-.64,0-1.27,.24-1.76,.71L47.63,115.78c-.9,.85-1.04,2.19-.41,3.2,.09,.15,.19,.28,.31,.41l5.11,5.38,1.63,1.72c.98,1.02,2.59,1.07,3.61,.1,.84-.8,1.81-1.42,2.82-1.81,.64-.26,1.31-.42,1.96-.48h.03c1.02-.09,1.93,.08,2.68,.48,.33,.17,.63,.4,.89,.67,1.83,1.94,1.11,5.73-1.58,8.29-.17,.16-.31,.34-.43,.53h6.45c1.77-3.09,2.16-6.59,1.05-9.49-.39-1.04-.99-2.01-1.78-2.85-1.92-2.03-4.66-3-7.72-2.73-.01,0-.03,0-.05,0-2.02,.19-4.02,.91-5.81,2.08l-3.38-3.56L170.57,6.16l3.38,3.56c-3.22,4.41-3.38,10.11-.08,13.59,1.92,2.03,4.66,3,7.71,2.73h.05c2.02-.19,4.02-.91,5.81-2.08l3.63,3.83c-1.28,1.74-2.11,3.72-2.39,5.74-.43,3.03,.39,5.82,2.32,7.84,3.3,3.48,9,3.62,13.57,.64l3.63,3.83c-3.22,4.41-3.38,10.1-.08,13.59,3.31,3.48,9,3.62,13.57,.64l3.38,3.56-64.45,61.15-10,9.49h7.42l10-9.49,62.37-59.19s.02,0,.03-.01c.89-.85,1.04-2.2,.41-3.2Z"/><path d="M212.34,134.26l22.53-9.49,31.23-13.16s.01,0,.02,0c1.3-.55,1.91-2.05,1.36-3.35l-3.72-8.84c-.55-1.3-2.05-1.91-3.35-1.36-3.33,1.4-6.99,.57-8-1.81-1-2.39,.96-5.58,4.29-6.99,1.3-.55,1.91-2.05,1.36-3.35l-3.78-8.97c-.26-.62-.77-1.12-1.39-1.37-.63-.26-1.34-.26-1.96,0-1.71,.73-3.6,.89-5.16,.45-1.38-.39-2.38-1.19-2.84-2.26-1-2.39,.96-5.58,4.29-6.99,.62-.26,1.12-.76,1.38-1.39s.25-1.33-.01-1.96l-3.78-8.97c-.55-1.3-2.05-1.91-3.35-1.36-1.72,.73-3.6,.89-5.16,.45-1.38-.39-2.38-1.19-2.84-2.26-1-2.38,.96-5.58,4.29-6.99,1.3-.55,1.91-2.05,1.36-3.34l-3.72-8.84h0c-.55-1.3-2.04-1.92-3.34-1.36l-18.53,7.45,3.74,3.96,14.41-5.71,1.83,4.34c-4.48,2.95-6.58,8.13-4.75,12.47,.03,.08,.08,.15,.11,.24l3.85,4.06c.68,.37,1.42,.68,2.2,.9,1.92,.54,4.02,.57,6.08,.12l1.97,4.68c-4.47,2.95-6.58,8.13-4.75,12.47,1.05,2.5,3.3,4.39,6.16,5.2,1.92,.54,4.02,.57,6.08,.12l1.97,4.68c-4.48,2.95-6.58,8.13-4.75,12.47,1.79,4.25,6.79,6.36,11.91,5.38,.11-.02,.22-.04,.33-.07l1.83,4.34-40.08,16.89-22.52,9.49h13.16Z"/></g></svg>